# xmcd
#
# Track frame offsets: 
#        150
#        13485
#        25935
#        37290
#        47680
#        57450
#        69562
#        80370
#        92235
#        105377
#        116070
#        127430
#
# Disc length: 1876 seconds
#
# Revision: 2
# Processed by: cddbd v1.5.2PL0 Copyright (c) Steve Scherf et al.
# Submitted via: ExactAudioCopy v0.95b4
#
DISCID=b107520c
DTITLE=Homer and Jethro - Country Their Way - Disc 3 of 3
DYEAR=1966
DGENRE=Comedy
TTITLE0=Baby It's Cold Outside (Single A-Side - June 1949)
TTITLE1=Cold, Cold Heart No. 2 (Single A-Side - November 1951)
TTITLE2=He'll Have To Go (B-Side of ''Sink The Bismarck'' - June 1960)
TTITLE3=Gone (Single A-Side - June 1957)
TTITLE4=Laying Time (Crying Time) (from ''Wanted For Murder'' LSP 3673
TTITLE4=1966)
TTITLE5=Hey Good Lookin' #2
TTITLE6=Don't Let The Stars Get In Your Eyeballs (Single A-Side - Febr
TTITLE6=uary 1953)
TTITLE7=Tennessee Border - No. 2 (Single A-Side - October 1949)
TTITLE8=I Love You A Thousand Ways No. 2 (Single A-Side - July 1951)
TTITLE9=I Don't Flirt Anymore (I Don't Hurt Anymore) (from ''Wanted Fo
TTITLE9=r Murder'' LSP 3673 - 1966)
TTITLE10=Your Clobbered Heart (Single A-Side - August 1953)
TTITLE11=I Feel That Old Age Creeping In (Originally Single B-Side - J
TTITLE11=anuary 1949)
EXTD=Country Their Way - Disc 3 of 3\n© 2001 TimelessMusic.com/BMG Spe
EXTD=cial Products\n\nOriginally Released 2001\n\nAMG EXPERT REVIEW:  
EXTD=N/A
EXTT0=
EXTT1=
EXTT2=
EXTT3=
EXTT4=
EXTT5=
EXTT6=
EXTT7=
EXTT8=
EXTT9=
EXTT10=
EXTT11=
PLAYORDER=
